<svg xmlns="http://www.w3.org/2000/svg" width="187px" height="100%" viewBox="0 0 297 48" fill="none" aria-labelledby="atlassianTitle"><title id="atlassianTitle">Atlassian</title><g><g><path d="M34.3175 36.5672L18.4402 4.81262C18.1276 4.12502 17.8151 4 17.44 4C17.1275 4 16.7524 4.12502 16.3774 4.75011C14.127 8.31312 13.1269 12.4387 13.1269 16.7518C13.1269 22.7527 16.1898 28.3785 20.6905 37.4423C21.1906 38.4425 21.5656 38.63 22.4407 38.63H33.4423C34.2549 38.63 34.6925 38.3175 34.6925 37.6924C34.6925 37.3798 34.63 37.1923 34.3175 36.5672ZM11.2516 21.565C10.0014 19.6898 9.62639 19.5647 9.31384 19.5647C9.0013 19.5647 8.81377 19.6898 8.25119 20.8149L0.312545 36.6922C0.062509 37.1923 0 37.3798 0 37.6299C0 38.1299 0.437563 38.63 1.3752 38.63H12.5643C13.3144 38.63 13.877 38.0049 14.1895 36.8172C14.5646 35.317 14.6896 34.0043 14.6896 32.4416C14.6896 28.066 12.7518 23.8154 11.2516 21.565Z" fill="#1868DB"></path></g><path d="M161.171 16.2416C161.171 20.7005 163.188 24.2039 171.363 25.7964C176.14 26.8581 177.202 27.6012 177.202 29.1937C177.202 30.7861 176.14 31.7416 172.743 31.7416C168.815 31.7416 164.144 30.3615 161.065 28.5567V35.7759C163.507 36.9437 166.692 38.3238 172.743 38.3238C181.236 38.3238 184.527 34.5019 184.527 28.9813M184.527 29.0875C184.527 23.7793 181.767 21.3375 173.805 19.6389C169.452 18.6834 168.39 17.7279 168.39 16.3478C168.39 14.6491 169.983 13.906 172.849 13.906C176.353 13.906 179.75 14.9676 183.041 16.4539V9.55326C180.705 8.38545 177.202 7.53613 173.062 7.53613C165.205 7.53613 161.171 10.9334 161.171 16.4539" fill="#1868DB"></path><path d="M269.884 7.74829V38.0051H276.36V14.9675L279.014 21.0188L288.144 38.0051H296.213V7.74829H289.843V27.2825L287.401 21.5497L280.076 7.74829H269.884Z" fill="#1868DB"></path><path d="M228.904 7.74829H221.897V38.0051H228.904V7.74829Z" fill="#1868DB"></path><path d="M213.829 28.9813C213.829 23.6731 211.069 21.2313 203.106 19.5327C198.753 18.5772 197.692 17.6217 197.692 16.2416C197.692 14.5429 199.284 13.7998 202.151 13.7998C205.654 13.7998 209.051 14.8614 212.342 16.3477V9.44705C210.007 8.27925 206.503 7.42993 202.363 7.42993C194.507 7.42993 190.473 10.8272 190.473 16.3477C190.473 20.8066 192.49 24.3101 200.664 25.9025C205.442 26.9642 206.503 27.7073 206.503 29.2998C206.503 30.8923 205.442 31.8477 202.045 31.8477C198.116 31.8477 193.445 30.4676 190.366 28.6628V35.882C192.808 37.0498 195.993 38.4299 202.045 38.4299C210.432 38.4299 213.829 34.608 213.829 28.9813Z" fill="#1868DB"></path><path d="M106.603 7.74829V38.0051H121.041L123.271 31.4229H113.61V7.74829H106.603Z" fill="#1868DB"></path><path d="M78.0447 7.74829V14.2243H85.7947V38.0051H92.9077V14.2243H101.295V7.74829H78.0447Z" fill="#1868DB"></path><path d="M67.7466 7.74805H58.5103L48 38.0049H56.0685L57.5548 32.909C59.3596 33.4398 61.2705 33.7583 63.1815 33.7583C65.0925 33.7583 67.0034 33.4398 68.8082 32.909L70.2945 38.0049H78.363C78.2568 38.0049 67.7466 7.74805 67.7466 7.74805ZM63.0753 27.3885C61.6952 27.3885 60.4212 27.1761 59.2534 26.8576L63.0753 13.6933L66.8973 26.8576C65.7294 27.1761 64.4555 27.3885 63.0753 27.3885Z" fill="#1868DB"></path><path d="M145.99 7.74805H136.753L126.137 38.0049H134.205L135.692 32.909C137.497 33.4398 139.408 33.7583 141.318 33.7583C143.229 33.7583 145.14 33.4398 146.945 32.909L148.431 38.0049H156.5L145.99 7.74805ZM141.318 27.3885C139.938 27.3885 138.664 27.1761 137.497 26.8576L141.318 13.6933L145.14 26.8576C143.973 27.1761 142.699 27.3885 141.318 27.3885Z" fill="#1868DB"></path><path d="M254.277 7.74805H245.041L234.531 38.0049H242.599L244.086 32.909C245.89 33.4398 247.801 33.7583 249.712 33.7583C251.623 33.7583 253.534 33.4398 255.339 32.909L256.825 38.0049H264.894L254.277 7.74805ZM249.712 27.3885C248.332 27.3885 247.058 27.1761 245.89 26.8576L249.712 13.6933L253.534 26.8576C252.366 27.1761 250.986 27.3885 249.712 27.3885Z" fill="#1868DB"></path></g></svg>
