<svg width="320" height="54" viewBox="0 0 320 54" fill="none" xmlns="http://www.w3.org/2000/svg">
<path fill-rule="evenodd" clip-rule="evenodd" d="M320 8.4961H313.512L305.015 32.5075H304.885L295.35 8.4961H288.539L301.706 39.2436L300.137 43.3607C299.488 45.0032 298.775 46.2687 297.997 47.1548C297.218 48.041 296.028 48.4847 294.429 48.4847H293.37V53.804H294.818C296.332 53.804 297.64 53.6098 298.743 53.2203C299.845 52.8309 300.808 52.28 301.63 51.5665C302.45 50.8531 303.164 49.9872 303.77 48.9723C304.375 47.9552 304.937 46.7992 305.457 45.5021L320 8.49609L320 8.4961ZM284.463 13.6728L284.577 7.91212C276.703 6.90515 273.704 11.651 272.84 13.4674H272.781V8.49688H267.008V39.2444H273.105V23.2943C273.105 21.9972 273.278 20.7543 273.624 19.5645C273.97 18.3758 274.5 17.327 275.214 16.4183C275.927 15.5107 276.823 14.787 277.905 14.2452C278.987 13.7056 280.262 13.4346 281.733 13.4346C282.727 13.4335 283.556 13.5024 284.463 13.6728H284.463ZM252.117 13.4913H260.717V8.49713H252.117V0H246.085V8.49601H239.754V13.4913H246.085V29.6491C246.085 32.8495 246.851 35.2495 248.386 36.8491C249.922 38.4499 252.138 39.2492 255.036 39.2492H258.108V33.7368H256.463C254.949 33.7368 253.846 33.3383 253.155 32.5413C252.463 31.7432 252.117 30.4179 252.117 28.5642V13.4913V13.4913ZM229.362 39.2439H235.459V20.1737C235.459 18.4442 235.232 16.8231 234.779 15.3082C234.325 13.7943 233.622 12.4758 232.67 11.3514C231.718 10.227 230.53 9.3307 229.103 8.65901C227.676 7.98958 225.847 7.6543 223.858 7.6543C222.734 7.6543 221.653 7.8067 220.615 8.10811C219.577 8.41065 218.625 8.83285 217.761 9.37359C216.895 9.91433 216.127 10.5409 215.458 11.2543C214.787 11.9678 214.258 12.7354 213.868 13.5572H213.794L213.793 8.49758H208.02L208.021 39.2451H214.118V22.8988C214.118 19.8282 214.885 17.3752 216.421 15.5362C217.956 13.6984 219.934 12.7795 222.357 12.7795C223.783 12.7795 224.951 13.0391 225.859 13.5584C226.767 14.0777 227.481 14.7697 228 15.6344C228.519 16.5003 228.876 17.4948 229.07 18.6181C229.265 19.7436 229.362 20.9323 229.362 22.1853V39.244L229.362 39.2439ZM200.82 25.6871C200.863 25.3417 200.884 24.9963 200.884 24.6497V23.6122C200.884 21.1479 200.538 18.9319 199.844 16.9631C199.151 14.9954 198.166 13.3202 196.887 11.9362C195.608 10.5521 194.048 9.49326 192.206 8.75722C190.364 8.02231 188.316 7.6543 186.063 7.6543C183.81 7.6543 181.708 8.05392 179.758 8.85431C177.807 9.65469 176.118 10.7678 174.687 12.1947C173.257 13.6216 172.142 15.3409 171.339 17.3514C170.537 19.362 170.137 21.5577 170.137 23.9351C170.137 26.3577 170.548 28.5636 171.37 30.5515C172.19 32.5406 173.316 34.2385 174.742 35.6439C176.171 37.0505 177.877 38.141 179.868 38.92C181.856 39.6978 184.019 40.0872 186.354 40.0872C189.078 40.0872 191.554 39.5725 193.781 38.5429C196.008 37.5134 197.943 35.9092 199.587 33.7293L195.306 30.2919C194.441 31.589 193.252 32.6919 191.738 33.5995C190.224 34.5083 188.43 34.9621 186.354 34.9621C185.013 34.9621 183.749 34.7261 182.56 34.2543C181.369 33.7824 180.322 33.1276 179.414 32.29C178.505 31.4524 177.78 30.4646 177.241 29.3267C176.699 28.1899 176.408 26.9763 176.365 25.6871H200.82L200.82 25.6871ZM194.637 20.887H176.395C176.504 19.7751 176.801 18.7241 177.303 17.7408C177.844 16.6819 178.536 15.763 179.379 14.9841C180.222 14.2052 181.217 13.5899 182.363 13.135C183.509 12.6812 184.73 12.4531 186.028 12.4531C187.455 12.4531 188.698 12.68 189.758 13.135C190.817 13.5888 191.704 14.2052 192.418 14.9841C193.131 15.763 193.671 16.6819 194.039 17.7408C194.38 18.7241 194.575 19.774 194.637 20.887ZM147.603 16.4746C147.603 15.7397 147.766 15.1233 148.09 14.6255C148.415 14.1288 148.846 13.7167 149.388 13.3927C149.928 13.0676 150.544 12.8317 151.236 12.6793C151.928 12.528 152.62 12.4524 153.312 12.4524C154.869 12.4524 156.273 12.8091 157.528 13.5226C158.783 14.236 159.756 15.1561 160.448 16.2793L164.664 12.712C163.539 11.0695 161.949 9.81529 159.896 8.94943C157.841 8.0847 155.712 7.65234 153.506 7.65234C152.036 7.65234 150.608 7.83635 149.225 8.20324C147.84 8.57126 146.609 9.13344 145.528 9.8898C144.447 10.6473 143.571 11.6204 142.9 12.8091C142.23 13.999 141.896 15.4146 141.896 17.0582C141.896 18.4851 142.165 19.6852 142.706 20.6583C143.247 21.6314 143.949 22.4419 144.814 23.0899C145.679 23.739 146.64 24.247 147.702 24.6139C148.76 24.9819 149.809 25.2946 150.847 25.5542C153.485 26.1604 155.485 26.8096 156.848 27.5004C158.209 28.1924 158.891 29.2525 158.891 30.6794C158.891 31.5452 158.717 32.2587 158.372 32.8197C158.025 33.3819 157.561 33.8369 156.978 34.1823C156.393 34.5289 155.745 34.7772 155.031 34.9285C154.318 35.0809 153.572 35.1554 152.793 35.1554C151.063 35.1554 149.474 34.7445 148.025 33.9227C146.576 33.102 145.44 32.0848 144.62 30.8735L140.273 34.5707C141.743 36.4311 143.592 37.814 145.82 38.7227C148.047 39.6315 150.328 40.0853 152.663 40.0853C154.22 40.0853 155.734 39.9114 157.204 39.566C158.674 39.2205 159.983 38.6482 161.128 37.8467C162.274 37.0474 163.193 36.0202 163.885 34.7648C164.577 33.5118 164.924 31.9754 164.924 30.159C164.924 28.819 164.664 27.6517 164.145 26.656C163.626 25.6615 162.901 24.8069 161.972 24.0935C161.041 23.38 159.95 22.7862 158.696 22.3098C157.442 21.8346 156.079 21.4236 154.609 21.0771C152.275 20.5578 150.523 19.9855 149.355 19.3578C148.187 18.7358 147.603 17.7728 147.603 16.4746V16.4746ZM118.052 16.4746C118.052 15.7397 118.215 15.1233 118.539 14.6255C118.864 14.1288 119.295 13.7167 119.837 13.3927C120.377 13.0676 120.993 12.8317 121.685 12.6793C122.377 12.528 123.069 12.4524 123.761 12.4524C125.318 12.4524 126.724 12.8091 127.978 13.5226C129.232 14.236 130.205 15.1561 130.897 16.2793L135.113 12.712C133.988 11.0695 132.398 9.81529 130.345 8.94943C128.29 8.0847 126.161 7.65234 123.956 7.65234C122.486 7.65234 121.058 7.83635 119.675 8.20324C118.29 8.57126 117.058 9.13344 115.978 9.8898C114.896 10.6473 114.02 11.6204 113.35 12.8091C112.679 13.999 112.345 15.4146 112.345 17.0582C112.345 18.4851 112.615 19.6852 113.155 20.6583C113.696 21.6314 114.398 22.4419 115.264 23.0899C116.128 23.739 117.09 24.247 118.151 24.6139C119.21 24.9819 120.258 25.2946 121.296 25.5542C123.934 26.1604 125.934 26.8096 127.297 27.5004C128.658 28.1924 129.34 29.2525 129.34 30.6794C129.34 31.5452 129.166 32.2587 128.821 32.8197C128.474 33.3819 128.01 33.8369 127.427 34.1823C126.842 34.5289 126.194 34.7772 125.481 34.9285C124.767 35.0809 124.021 35.1554 123.242 35.1554C121.513 35.1554 119.923 34.7445 118.475 33.9227C117.025 33.102 115.89 32.0848 115.069 30.8735L110.723 34.5707C112.192 36.4311 114.042 37.814 116.269 38.7227C118.496 39.6315 120.778 40.0853 123.112 40.0853C124.67 40.0853 126.183 39.9114 127.654 39.566C129.124 39.2205 130.432 38.6482 131.578 37.8467C132.724 37.0474 133.643 36.0202 134.335 34.7648C135.026 33.5118 135.373 31.9754 135.373 30.159C135.373 28.819 135.113 27.6517 134.594 26.656C134.075 25.6615 133.35 24.8069 132.421 24.0935C131.491 23.38 130.399 22.7862 129.145 22.3098C127.891 21.8346 126.528 21.4236 125.058 21.0771C122.724 20.5578 120.972 19.9855 119.805 19.3578C118.637 18.7358 118.052 17.7728 118.052 16.4746V16.4746ZM106.323 25.6871C106.366 25.3417 106.388 24.9963 106.388 24.6497V23.6122C106.388 21.1479 106.042 18.9319 105.348 16.9631C104.655 14.9954 103.669 13.3202 102.391 11.9362C101.112 10.5521 99.5516 9.49326 97.7104 8.75722C95.868 8.02231 93.8202 7.6543 91.567 7.6543C89.3126 7.6543 87.2118 8.05392 85.2621 8.85431C83.3126 9.65469 81.6216 10.7678 80.1912 12.1947C78.7609 13.6216 77.6456 15.3409 76.8429 17.3514C76.0414 19.362 75.6406 21.5577 75.6406 23.9351C75.6406 26.3577 76.0516 28.5636 76.8734 30.5515C77.6942 32.5406 78.8196 34.2385 80.2465 35.6439C81.6735 37.0505 83.3815 38.141 85.3705 38.92C87.3585 39.6978 89.5226 40.0872 91.8571 40.0872C94.5812 40.0872 97.0567 39.5725 99.2841 38.5429C101.511 37.5134 103.446 35.9092 105.09 33.7293L100.809 30.2919C99.9434 31.589 98.7546 32.6919 97.2419 33.5995C95.7281 34.5083 93.9343 34.9621 91.8583 34.9621C90.5171 34.9621 89.2529 34.7261 88.0629 34.2543C86.8732 33.7824 85.8255 33.1276 84.9167 32.29C84.0081 31.4524 83.2833 30.4646 82.7437 29.3267C82.2029 28.1899 81.9105 26.9763 81.8676 25.6871H106.323L106.323 25.6871ZM100.141 20.887H81.8984C82.0092 19.7751 82.306 18.7241 82.8084 17.7408C83.348 16.6819 84.0412 15.763 84.8844 14.9841C85.7277 14.2052 86.7223 13.5899 87.868 13.135C89.0139 12.6812 90.2353 12.4531 91.5336 12.4531C92.9604 12.4531 94.2032 12.68 95.2634 13.135C96.3223 13.5888 97.2097 14.2052 97.9231 14.9841C98.6366 15.763 99.1772 16.6819 99.5452 17.7408C99.884 18.7241 100.079 19.774 100.141 20.887Z" fill="#222222"/>
<path fill-rule="evenodd" clip-rule="evenodd" d="M64.8973 23.4076C64.8973 20.3393 62.4104 17.8535 59.3432 17.8535C56.2749 17.8535 53.7891 20.3405 53.7891 23.4076C53.7891 26.476 56.276 28.9618 59.3432 28.9618C62.4104 28.9629 64.8973 26.476 64.8973 23.4076ZM54.2114 5.12515C54.2114 2.29503 51.9164 0 49.0863 0H16.6093C13.7792 0 11.4842 2.29503 11.4842 5.12515C11.4842 7.95527 13.7781 10.2503 16.6093 10.2503H49.0863C51.9164 10.2503 54.2114 7.95527 54.2114 5.12515ZM38.7321 18.2832H5.12515C2.29503 18.2832 0 20.5782 0 23.4084C0 26.2385 2.29503 28.5335 5.12515 28.5335H38.7321C41.5622 28.5335 43.8573 26.2385 43.8573 23.4084C43.8573 20.5782 41.5622 18.2832 38.7321 18.2832ZM11.4844 41.7736C11.4844 44.6037 13.7783 46.8987 16.6095 46.8987H49.0865C51.9166 46.8987 54.2116 44.6037 54.2116 41.7736C54.2116 38.9435 51.9166 36.6484 49.0865 36.6484H16.6095C13.7783 36.6484 11.4844 38.9435 11.4844 41.7736Z" fill="#222222"/>
</svg>
