<svg width="312" height="68" viewBox="0 0 312 68" fill="none" xmlns="http://www.w3.org/2000/svg">
<g clip-path="url(#clip0_3526_7005)">
<mask id="mask0_3526_7005" style="mask-type:luminance" maskUnits="userSpaceOnUse" x="0" y="0" width="312" height="68">
<path d="M312 0H0V67.3866H312V0Z" fill="white"/>
</mask>
<g mask="url(#mask0_3526_7005)">
<path d="M149.666 36.8379C149.666 29.2057 146.163 22.8438 135.287 22.8438C129.357 22.8438 124.889 24.4393 122.625 25.6995L125.864 31.4719C127.976 30.4862 130.799 29.7544 133.49 29.7544C138.486 29.7544 139.42 32.2037 139.42 33.9313V35.9029C128.869 35.9029 120.289 38.3725 120.289 46.7974C120.289 51.9703 124.219 56.7468 130.83 56.7468C134.698 56.7468 138.029 55.3545 140.161 52.7731H140.365L140.964 56.0252H149.666V36.848V36.8379ZM139.766 41.8583V44.2059C139.766 44.8055 139.694 45.3949 139.562 45.9234C138.903 47.9763 136.831 49.643 134.292 49.643C132.028 49.643 129.642 48.9316 129.621 46.3401C129.652 42.2242 134.15 41.8481 139.756 41.8481L139.766 41.8583Z" fill="#0B0B0B"/>
<path d="M241.291 39.2059C241.362 29.2668 235.726 22.8337 228.049 22.8337C223.591 22.8337 220.251 24.6223 218.342 27.407H218.209V10.0591H208.258V55.9746H216.443L216.838 51.4623H216.97C219.265 55.3038 222.87 56.6961 226.607 56.6961C233.949 56.6961 241.291 50.8627 241.291 39.1958V39.2059ZM224.251 48.7387C221.367 48.7387 219.073 46.6857 218.412 43.9723C218.28 43.4438 218.22 42.8442 218.22 42.1836V37.4173C218.22 36.7567 218.28 36.1571 218.412 35.5575C219.073 32.6408 221.561 30.5879 224.251 30.5879C228.902 30.5879 231.136 34.5615 231.136 39.6023C231.136 45.4357 228.516 48.7488 224.251 48.7488V48.7387Z" fill="#0B0B0B"/>
<path d="M312.003 36.8379C312.003 29.2057 308.489 22.8438 297.624 22.8438C291.693 22.8438 287.225 24.4393 284.961 25.6995L288.2 31.4719C290.312 30.4862 293.135 29.7544 295.826 29.7544C300.823 29.7544 301.757 32.2037 301.757 33.9313V35.9029C291.206 35.9029 282.625 38.3725 282.625 46.7974C282.625 51.9703 286.565 56.7468 293.166 56.7468C297.035 56.7468 300.365 55.3545 302.498 52.7731H302.701L303.3 56.0252H312.003V36.848V36.8379ZM302.112 44.2059C302.112 44.8055 302.041 45.3949 301.909 45.9234C301.239 47.9763 299.177 49.643 296.639 49.643C294.374 49.643 291.988 48.9316 291.978 46.3401C291.998 42.2242 296.507 41.8481 302.102 41.8481V44.2059H302.112Z" fill="#0B0B0B"/>
<path d="M268.442 10.0493V26.4825H268.31C266.848 24.2264 263.721 22.8341 259.739 22.8341C251.971 22.8341 245.127 29.1452 245.188 40.0905C245.188 50.172 251.362 56.7371 259.07 56.7371C263.253 56.7371 267.173 54.8773 269.234 51.2289H269.366L269.833 56.0054H278.526V10.0493H268.442ZM268.432 41.5539C268.432 42.4177 268.361 43.1495 268.168 43.8812C267.569 46.7369 265.243 48.7186 262.319 48.7186C258.135 48.7186 255.414 45.2735 255.414 39.7653C255.414 34.6534 257.81 30.5476 262.39 30.5476C265.508 30.5476 267.701 32.8038 268.3 35.5274C268.371 36.0558 268.432 36.7876 268.432 37.316V41.5641V41.5539Z" fill="#0B0B0B"/>
<path d="M192.191 22.8438C189.794 22.8438 187.804 23.3722 186.017 24.4393C184.483 25.3743 183.031 26.6954 181.833 28.352H181.701C180.31 24.9678 176.989 22.8438 172.805 22.8438C167.22 22.8438 164.367 25.8926 162.975 27.9556H162.773L162.306 23.5755H154.07V56.0151H163.9V37.1123C163.9 36.3196 163.971 35.3948 164.296 34.5919C164.895 32.9354 166.418 30.9435 169.008 30.9435C172.196 30.9435 173.658 33.7281 173.658 37.844V56.0252H183.488V37.0513C183.488 36.2586 183.62 35.1915 183.884 34.47C184.545 32.5492 186.21 30.9537 188.535 30.9537C191.785 30.9537 193.318 33.6773 193.318 38.3826V56.0252H203.148V36.9192C203.148 27.2341 198.436 22.8539 192.191 22.8539V22.8438Z" fill="#0B0B0B"/>
<path d="M98.8287 47.5087H116.63V56.0048H88.6641V11.2886H98.8287V47.5087Z" fill="#0B0B0B"/>
<path d="M17.4927 11.7387L29.2179 32.2848L16.1719 56.0791L24.5682 56.0723L33.2611 39.8389L42.52 56.0791H51.0781L26.0508 11.7319L17.4927 11.7387Z" fill="#0B0B0B"/>
<path d="M0 0V67.3866H67.3866V0H0ZM61.4364 61.4542H5.95024V5.93243H61.4364V61.4542Z" fill="#0B0B0B"/>
</g>
</g>
<defs>
<clipPath id="clip0_3526_7005">
<rect width="312" height="67.3866" fill="white"/>
</clipPath>
</defs>
</svg>
