<svg xmlns="http://www.w3.org/2000/svg" width="123" height="26" fill="none"><path fill="url(#a)" d="M115.809 11.52v8.837h3.393V11.52c0-2.164 1.403-3.605 3.486-3.605V4.891c-4.118.025-6.879 2.676-6.879 6.63Z"/><path fill="#002432" d="m79.162 5.242-4.376 10.906-4.328-10.906h-3.462l6.083 15.115h.046l-.507 1.18c-.265.669-.52 1.099-.764 1.291-.245.192-.682.29-1.314.29h-2.322L68.233 26h3.543c.753 0 1.354-.127 1.803-.38a3.151 3.151 0 0 0 1.13-1.123c.305-.496.642-1.21 1.008-2.14l6.834-17.116h-3.39ZM18.063 0H14.67v3.225h3.393V0ZM12.82 20.356H5.48a5.504 5.504 0 0 1-3.873-1.597A5.436 5.436 0 0 1 0 14.91V0h3.392v15.156c.001.55.221 1.078.613 1.467.391.39.922.608 1.476.609h7.34l-.002 3.124Z"/><path fill="url(#b)" d="M105.995 4.986c-3.056 0-5.325 2.065-6.476 3.495l-5.13 6.538c-.57.71-2.055 2.754-4.335 2.754-2.432 0-3.9-2.117-3.9-4.908 0-2.723 1.542-4.792 3.909-4.858 1.897.008 3.36 1.72 3.928 2.427l.465.577 1.932-2.436c-1.184-1.438-3.267-3.59-6.212-3.59h-.125c-4.398 0-7.408 3.534-7.408 7.882 0 4.373 3.01 7.93 7.408 7.93 2.724 0 4.864-1.757 6.014-3.187l5.857-7.272c.8-.943 2.119-2.322 3.984-2.322h.089c2.434 0 4.152 2.095 4.152 4.859 0 2.79-1.718 4.907-4.152 4.907-2.489 0-3.675-1.802-4.602-2.982l-.042-.052-1.932 2.437.188.234c1.38 1.687 3.454 3.384 5.918 3.384 2.129 0 3.801-1.094 4.48-1.93v1.488h3.393v-7.493c.002-4.347-3.005-7.882-7.403-7.882Z"/><path fill="#002432" d="M14.67 5.242v15.115h3.393V5.242H14.67Zm12.845-.351c-4.117.023-6.878 2.674-6.878 6.627v8.837h3.392V11.52c0-2.161 1.404-3.604 3.486-3.604 2.083 0 3.487 1.443 3.487 3.604v8.837h3.392V11.52c0-3.954-2.761-6.605-6.878-6.63Zm16.12 7.513 6.551-7.163h-4.328l-5.498 6.117V0h-3.393v20.356h3.393v-6.79l6.2 6.79h4.094l-7.019-7.952Z"/><path fill="#002432" fill-rule="evenodd" d="M58.239 4.985h.467c5.797 0 8.2 4.567 8.2 7.93 0 4.35-3.58 7.883-7.978 7.883-4.4 0-7.721-3.534-7.721-7.883V0h3.391v12.914c0 2.765 1.897 4.86 4.33 4.86 2.432 0 4.468-2.093 4.468-4.86 0-2.637-1.666-4.765-5.157-4.765V4.985ZM55.843 8.15l2.197-3.164h.198V8.15h-2.395Z" clip-rule="evenodd"/><defs><radialGradient id="b" cx="0" cy="0" r="1" gradientTransform="matrix(-11.76486 15.3295 -26.02977 -19.97695 106.265 8.17)" gradientUnits="userSpaceOnUse"><stop stop-color="#31ECDB"/><stop offset="1" stop-color="#0E5D6B"/></radialGradient><linearGradient id="a" x1="111.642" x2="131.088" y1="7.325" y2="25.132" gradientUnits="userSpaceOnUse"><stop stop-color="#35FFE8"/><stop stop-color="#35FFE8"/><stop offset="1" stop-color="#116A76"/></linearGradient></defs></svg>