<svg xmlns="http://www.w3.org/2000/svg" width="160" height="40"><g><path fill="#333" d="M11.614 14.417 5.245 39.148l-4.604.498 6.37-24.731 4.603-.498zM24.82 12.987 18.453 37.72l-4.604.498 6.369-24.732 4.604-.498zM43.805 18.433a9.338 9.338 0 0 1-.144 3.041 6.341 6.341 0 0 1-1.302 2.69c-.655.805-1.559 1.49-2.712 2.052-1.153.565-2.617.942-4.389 1.134l-1.18.127.958 8.448-5.153.557-2.69-23.752 6.748-.73c1.562-.17 2.93-.145 4.105.074 1.174.218 2.166.603 2.975 1.158a5.848 5.848 0 0 1 1.9 2.145c.457.879.752 1.896.884 3.056zM33.61 23.35l1.014-.11c1.452-.157 2.513-.556 3.187-1.2.672-.643.937-1.598.794-2.864-.134-1.181-.563-2.018-1.285-2.51-.724-.491-1.789-.661-3.196-.509l-1.313.143.799 7.05zM68.751 20.223c.207 1.83.177 3.522-.09 5.074-.268 1.553-.788 2.915-1.564 4.084-.776 1.17-1.816 2.12-3.118 2.853-1.302.733-2.883 1.2-4.745 1.402-1.86.201-3.51.083-4.944-.353-1.435-.437-2.659-1.144-3.671-2.12-1.014-.975-1.825-2.195-2.433-3.658-.61-1.464-1.018-3.117-1.227-4.957-.208-1.84-.179-3.535.09-5.083.268-1.547.79-2.9 1.567-4.059.778-1.159 1.817-2.102 3.12-2.83 1.303-.727 2.89-1.192 4.764-1.394 1.86-.202 3.505-.086 4.934.346 1.428.432 2.649 1.133 3.662 2.103 1.012.971 1.823 2.183 2.43 3.635.606 1.453 1.016 3.105 1.225 4.957zm-16.487 1.784c.14 1.246.378 2.352.712 3.32.334.967.77 1.769 1.307 2.407a4.779 4.779 0 0 0 1.917 1.395c.74.293 1.59.388 2.555.284.986-.108 1.81-.383 2.473-.828a4.565 4.565 0 0 0 1.548-1.77c.372-.737.609-1.613.712-2.627.105-1.014.085-2.144-.055-3.39-.14-1.245-.376-2.352-.704-3.32-.328-.968-.756-1.773-1.283-2.419a4.633 4.633 0 0 0-1.9-1.406c-.74-.292-1.597-.386-2.572-.28-.965.104-1.78.378-2.447.824a4.638 4.638 0 0 0-1.574 1.782c-.381.743-.626 1.622-.736 2.637-.11 1.015-.094 2.146.047 3.39zM86.867 23.642c.12 1.06.043 2.037-.232 2.927a5.883 5.883 0 0 1-1.382 2.353c-.647.679-1.47 1.235-2.47 1.673-.998.437-2.17.727-3.509.873-1.174.127-2.322.13-3.439.011a12.623 12.623 0 0 1-3.155-.745l-.53-4.679c.56.192 1.125.375 1.694.55.57.173 1.144.322 1.725.446.58.124 1.157.21 1.728.257a8.857 8.857 0 0 0 1.689-.018c.565-.062 1.042-.176 1.433-.344.391-.168.698-.377.922-.626.224-.249.377-.534.459-.855.081-.322.1-.666.06-1.035a2.37 2.37 0 0 0-.425-1.146c-.233-.32-.54-.61-.923-.87a8.416 8.416 0 0 0-1.361-.734 45.632 45.632 0 0 0-1.755-.714 35.754 35.754 0 0 1-1.819-.756 9.29 9.29 0 0 1-1.943-1.18 7.11 7.11 0 0 1-1.628-1.83c-.464-.734-.757-1.642-.88-2.725-.12-1.062-.048-2.032.217-2.91a5.833 5.833 0 0 1 1.296-2.294c.599-.652 1.356-1.18 2.269-1.586.913-.405 1.956-.672 3.131-.799a12.886 12.886 0 0 1 1.734-.072 14.47 14.47 0 0 1 1.698.145c.565.08 1.136.194 1.713.34.578.146 1.174.322 1.793.53l-1.219 4.095a32.998 32.998 0 0 0-1.465-.45 13.767 13.767 0 0 0-1.312-.302 9.274 9.274 0 0 0-1.235-.138 7.907 7.907 0 0 0-1.198.04c-.865.093-1.502.39-1.91.888-.41.5-.572 1.122-.488 1.87.045.4.155.748.329 1.042.173.293.428.56.762.797.336.239.76.472 1.275.702.513.229 1.134.485 1.862.769.879.343 1.694.702 2.443 1.076a9.372 9.372 0 0 1 1.973 1.299 6.114 6.114 0 0 1 1.382 1.733c.356.662.586 1.46.691 2.392zM100.176 28.877l-5.135.556-2.214-19.56-6.1.659-.475-4.192 17.318-1.874.475 4.192-6.083.658 2.214 19.561zM123.175 26.389l-13.993 1.514-2.69-23.753 13.993-1.513.468 4.126-8.843.957.591 5.216 8.226-.89.467 4.127-8.226.89.694 6.124 8.841-.956.472 4.158zM146.753 11.784c.207 1.83.178 3.522-.09 5.074-.267 1.554-.788 2.915-1.564 4.084-.776 1.17-1.815 2.12-3.117 2.853-1.302.733-2.884 1.2-4.746 1.402-1.861.201-3.51.083-4.944-.353-1.435-.437-2.659-1.143-3.671-2.12-1.014-.975-1.825-2.194-2.433-3.658-.61-1.463-1.018-3.116-1.227-4.957-.208-1.842-.179-3.536.09-5.083.268-1.548.79-2.9 1.567-4.06.777-1.158 1.817-2.1 3.12-2.828 1.303-.727 2.89-1.192 4.764-1.395 1.86-.202 3.505-.087 4.934.346 1.428.431 2.649 1.133 3.662 2.103 1.013.97 1.823 2.181 2.43 3.634.607 1.453 1.015 3.105 1.225 4.958zm-16.487 1.783c.14 1.246.378 2.352.712 3.32.334.967.77 1.769 1.307 2.407a4.78 4.78 0 0 0 1.917 1.396c.74.293 1.591.387 2.556.283.986-.107 1.81-.383 2.472-.828a4.56 4.56 0 0 0 1.548-1.77c.372-.737.61-1.612.713-2.627.104-1.014.084-2.144-.056-3.39-.14-1.245-.375-2.352-.704-3.32-.328-.967-.756-1.773-1.283-2.418a4.623 4.623 0 0 0-1.9-1.406c-.74-.293-1.597-.387-2.572-.281-.965.104-1.78.38-2.447.824a4.654 4.654 0 0 0-1.574 1.782c-.38.743-.626 1.622-.735 2.637-.11 1.015-.095 2.146.046 3.391z"/><path fill="#ee955c" d="M150.8 21.049c-.058-.509-.033-.948.077-1.316.11-.369.285-.676.526-.92.242-.246.534-.436.878-.572.343-.136.72-.226 1.13-.27a4.086 4.086 0 0 1 1.121.026c.36.06.686.184.976.371.29.189.533.45.728.785.194.335.321.757.379 1.266.055.487.024.913-.092 1.276a2.407 2.407 0 0 1-.534.93c-.24.256-.529.454-.867.595-.337.14-.698.232-1.086.274-.41.044-.799.035-1.165-.03a2.517 2.517 0 0 1-.987-.394 2.352 2.352 0 0 1-.72-.795c-.188-.33-.31-.739-.364-1.226z"/></g></svg>
