<svg width="200" height="200" fill="none" xmlns="http://www.w3.org/2000/svg"><path fill-rule="evenodd" clip-rule="evenodd" d="M150.96 93.58a6.02 6.02 0 1 0 0 12.04 6.02 6.02 0 0 0 0-12.04Zm33.57-12.48a6 6 0 1 0-12.02-.03 6 6 0 0 0 12.02.03Zm-.2 36.76a6 6 0 1 0-12.04.13 6.01 6.01 0 0 0 12.04-.13ZM157.1 77.69h12.96c2.73-4.65 6.54-6.5 10.82-5.3a9.03 9.03 0 0 1 6.65 8.9 9.09 9.09 0 0 1-6.82 8.56c-3.35.86-8.11-.17-10.6-5.32h-98.9a21.09 21.09 0 0 0-5.72 11.4h77.14c2.84-4.53 6.6-6.25 10.88-4.98a9.04 9.04 0 0 1 6.46 8.93c-.1 4-3 7.56-6.91 8.5-3.46.84-8.23-.36-10.6-5.53H65.43c.66 4.61 2.63 8.5 5.78 11.83h98.57c2.94-4.86 6.55-6.69 10.86-5.5a9.05 9.05 0 0 1 6.69 8.77 9.08 9.08 0 0 1-6.69 8.66c-3.38.95-8.12-.11-10.65-5.06h-53.94a36.77 36.77 0 0 1-54.73 4.48c-15.18-14.44-15.01-39 .25-53.12a36.82 36.82 0 0 1 54.48 4.74h32.46a64.07 64.07 0 0 0-15.92-24.81c-11.06-10.76-24.3-17-39.65-18.4a65.52 65.52 0 0 0-69.71 48.41 65.5 65.5 0 0 0 35.03 75.6 65.83 65.83 0 0 0 82.54-21.99h9.41c-11.49 21.08-39.3 40.47-73.47 35.85a73.48 73.48 0 0 1-63.73-70.93c-.9-36.6 24.9-67.17 59.23-73.95a73.8 73.8 0 0 1 84.87 50.26Z" fill="#9B59B6"/></svg>